<svg xmlns="http://www.w3.org/2000/svg" width="96" height="96" viewBox="0 0 96 96" role="img" aria-hidden="true">
  <defs>
    <linearGradient id="shieldGradient" x1="18%" y1="8%" x2="82%" y2="92%">
      <stop offset="0" stop-color="#ffe5d8" />
      <stop offset="1" stop-color="#d86a4a" />
    </linearGradient>
  </defs>
  <path fill="url(#shieldGradient)" d="M48 10 20 20v22c0 18.666 11.719 35.632 28 42 16.281-6.368 28-23.334 28-42V20L48 10Z" />
  <path fill="#fff" fill-opacity="0.94" d="M48 28a14 14 0 0 0-14 14v6a2 2 0 0 0 2 2h3.5a2 2 0 0 0 2-2v-6a6.5 6.5 0 1 1 13 0v6a2 2 0 0 0 2 2H60a2 2 0 0 0 2-2v-6A14 14 0 0 0 48 28Z" />
  <path fill="#fff" fill-opacity="0.75" d="m36.5 56.75 8.75 10.5a3 3 0 0 0 4.5 0l9.75-11.7a1.5 1.5 0 0 0-1.15-2.45H37.6a1.5 1.5 0 0 0-1.1 2.65Z" />
</svg>
