<svg xmlns="http://www.w3.org/2000/svg" width="96" height="96" viewBox="0 0 96 96" role="img" aria-hidden="true">
  <defs>
    <linearGradient id="councilGradient" x1="14%" y1="10%" x2="86%" y2="90%">
      <stop offset="0" stop-color="#f7c9b4" />
      <stop offset="1" stop-color="#d86a4a" />
    </linearGradient>
  </defs>
  <rect x="8" y="8" width="80" height="80" rx="24" fill="url(#councilGradient)" />
  <path fill="#fff" fill-opacity="0.92" d="M48 26c6.627 0 12 5.373 12 12S54.627 50 48 50s-12-5.373-12-12 5.373-12 12-12Zm0 28c11.598 0 21 9.402 21 21 0 1.105-.895 2-2 2H29c-1.105 0-2-.895-2-2 0-11.598 9.402-21 21-21Z" />
  <path fill="#fff" fill-opacity="0.75" d="M28.5 38c1.933-3.348 5.546-5.605 9.685-5.605a2 2 0 0 1 0 4c-2.836 0-5.336 1.54-6.61 3.934a2 2 0 0 1-3.075-2.329Zm38.815-5.605A10.499 10.499 0 0 1 77.5 38a2 2 0 1 1-3.075 2.329c-1.274-2.395-3.774-3.934-6.61-3.934a2 2 0 1 1 0-4Z" />
</svg>
