<svg xmlns="http://www.w3.org/2000/svg" width="96" height="96" viewBox="0 0 96 96" role="img" aria-hidden="true">
  <defs>
    <linearGradient id="counselorGradient" x1="12%" y1="14%" x2="88%" y2="86%">
      <stop offset="0" stop-color="#fddfd2" />
      <stop offset="1" stop-color="#b3472b" />
    </linearGradient>
  </defs>
  <circle cx="48" cy="48" r="40" fill="url(#counselorGradient)" />
  <path fill="#fff" fill-opacity="0.9" d="M34 36a10 10 0 1 1 10 10 10 10 0 0 1-10-10Zm28 0a10 10 0 1 1-10 10 10 10 0 0 1 10-10Z" />
  <path fill="#fff" fill-opacity="0.82" d="M26 62.5c0-6.351 5.149-11.5 11.5-11.5h1c4.97 0 9 4.03 9 9v12.5a2.5 2.5 0 0 1-2.5 2.5H28.5A2.5 2.5 0 0 1 26 72V62.5Zm23 0c0-6.351 5.149-11.5 11.5-11.5h1c4.97 0 9 4.03 9 9V72a2.5 2.5 0 0 1-2.5 2.5H49.5A2.5 2.5 0 0 1 47 72Z" />
  <circle cx="48" cy="54" r="5" fill="#fff" fill-opacity="0.88" />
</svg>
