<?xml version="1.0" encoding="UTF-8" standalone="no"?>
<!-- Created with Inkscape (http://www.inkscape.org/) -->

<svg
   width="211.94911mm"
   height="255.4662mm"
   viewBox="0 0 211.94911 255.4662"
   version="1.1"
   id="svg1"
   xml:space="preserve"
   inkscape:version="1.3 (0e150ed6c4, 2023-07-21)"
   sodipodi:docname="ربوع.svg"
   xmlns:inkscape="http://www.inkscape.org/namespaces/inkscape"
   xmlns:sodipodi="http://sodipodi.sourceforge.net/DTD/sodipodi-0.dtd"
   xmlns="http://www.w3.org/2000/svg"
   xmlns:svg="http://www.w3.org/2000/svg"><sodipodi:namedview
     id="namedview1"
     pagecolor="#ffffff"
     bordercolor="#000000"
     borderopacity="0.25"
     inkscape:showpageshadow="2"
     inkscape:pageopacity="0.0"
     inkscape:pagecheckerboard="0"
     inkscape:deskcolor="#d1d1d1"
     inkscape:document-units="mm"
     inkscape:zoom="1.0469406"
     inkscape:cx="4409.5146"
     inkscape:cy="4313.043"
     inkscape:window-width="1920"
     inkscape:window-height="1009"
     inkscape:window-x="-8"
     inkscape:window-y="-8"
     inkscape:window-maximized="1"
     inkscape:current-layer="layer1"
     showgrid="false"
     showguides="true" /><defs
     id="defs1" /><g
     inkscape:label="Layer 1"
     inkscape:groupmode="layer"
     id="layer1"
     transform="translate(-431.85234,-1933.4111)"><path
       style="fill:#4f5a3e;fill-opacity:1"
       d="m 459.98845,2187.3813 c -10.3926,-3.2848 -19.9337,-11.9817 -24.9617,-22.753 l -3.1744,-6.8005 v -96.9072 -96.9072 l 3.2576,-7.0525 3.2576,-7.0526 6.0922,-5.7617 c 3.3508,-3.169 8.5153,-6.8809 11.4768,-8.2486 l 5.3846,-2.4869 h 76.5057 76.5057 l 5.3846,2.4869 c 2.9615,1.3677 8.1261,5.0796 11.4768,8.2486 l 6.0922,5.7617 3.2576,7.0526 3.2577,7.0525 v 96.9072 96.9072 l -3.2577,7.0526 -3.2576,7.0525 -6.0922,5.7618 c -3.3507,3.1689 -8.5153,6.8808 -11.4768,8.2486 l -5.3846,2.4868 -74.8055,0.2235 -74.8056,0.2236 z m 95.468,-16.8692 c -12.4729,-7.6361 -22.1396,-22.3279 -24.5599,-37.3268 l -1.0501,-6.5078 1.1788,-7.6599 1.1788,-7.6599 3.9552,-8.1131 3.9553,-8.113 6.5067,-5.9614 6.5068,-5.9613 7.3672,-3.4066 7.3672,-3.4065 10.4127,-0.5025 10.4128,-0.5024 7.764,2.3582 7.7639,2.3583 6.5772,4.7098 6.5772,4.7098 5.0327,6.8365 5.0328,6.8364 -0.3178,-67.8931 -0.3178,-67.8931 -2.8335,-5.0501 -2.8336,-5.05 -4.9146,-3.4506 -4.9147,-3.4506 h -73.4769 -73.4768 l -4.9147,3.4506 -4.9147,3.4506 -2.8335,5.05 -2.8335,5.0501 v 93.5069 93.507 l 2.5397,4.7513 c 2.5983,4.861 7.8066,9.5646 12.7953,11.5556 l 2.7996,1.1173 45.3367,0.01 45.3367,0.01 z m -88.2925,-126.3987 c -1.0317,-1.1399 -1.8758,-3.4153 -1.8758,-5.0562 v -2.9835 l 2.4806,-2.311 2.4805,-2.311 h 56.3043 56.3043 l 2.9864,2.3491 2.9864,2.3491 v 2.4991 c 0,1.3745 -0.794,3.6327 -1.7644,5.0181 l -1.7644,2.5191 h -58.131 -58.1311 z m 0.391,-43.2639 -2.2668,-2.2669 v -3.2246 -3.2245 l 2.0727,-1.8758 2.0728,-1.8758 h 68.5902 68.5902 l 1.8758,2.0727 c 1.0316,1.14 1.8758,3.4352 1.8758,5.1004 v 3.0276 l -2.2669,2.2669 -2.2668,2.2668 h -68.0051 -68.005 z m 126.407,159.0593 5.5351,-1.886 6.4267,-6.3313 6.4267,-6.3313 2.5202,-6.8005 2.5202,-6.8005 -0.5088,-7.3855 -0.5088,-7.3854 -2.3094,-5.2209 c -3.2489,-7.3447 -9.653,-13.9969 -16.8778,-17.5317 l -6.1763,-3.0218 -7.6067,-0.5246 -7.6067,-0.5246 -6.7085,2.5322 -6.7085,2.5323 -5.0104,4.6185 c -2.7558,2.5402 -6.3577,7.1891 -8.0042,10.3311 l -2.9937,5.7126 -0.022,10.2007 -0.022,10.2008 2.7797,5.6491 c 1.5289,3.1071 4.9881,7.7954 7.6872,10.4186 l 4.9073,4.7693 5.9139,2.2734 5.9139,2.2734 7.4486,0.059 7.4487,0.059 z m -25.1957,-18.7989 c -4.6687,-4.5195 -9.2029,-9.5912 -10.0761,-11.2705 l -1.5875,-3.0532 1.0753,-2.8283 c 2.6044,-6.85 7.6983,-6.7038 15.2494,0.4377 l 5.996,5.6708 8.3873,-10.9833 8.3872,-10.9834 3.1979,-1.0426 3.198,-1.0427 2.7525,2.5859 2.7525,2.5858 v 3.0273 3.0272 l -9.2224,12.3597 c -5.0723,6.7978 -10.7828,14.0173 -12.6899,16.0433 l -3.4675,3.6836 h -2.7321 -2.732 z"
       id="path229"
       sodipodi:nodetypes="sscccccsscccsscccccccsscccscscccccccccccccccccccccccccccccccssccccsscccccccsscccsccccccccssccccccccccccccsscccccsscccssccccccsscsscccccccccsscccs" /></g></svg>
