<?xml version="1.0" encoding="UTF-8" standalone="no"?>
<!-- Created with Inkscape (http://www.inkscape.org/) -->

<svg
   width="209.42139mm"
   height="147.4879mm"
   viewBox="0 0 209.42139 147.4879"
   version="1.1"
   id="svg1"
   xml:space="preserve"
   inkscape:version="1.3 (0e150ed6c4, 2023-07-21)"
   sodipodi:docname="ربوع.svg"
   xmlns:inkscape="http://www.inkscape.org/namespaces/inkscape"
   xmlns:sodipodi="http://sodipodi.sourceforge.net/DTD/sodipodi-0.dtd"
   xmlns="http://www.w3.org/2000/svg"
   xmlns:svg="http://www.w3.org/2000/svg"><sodipodi:namedview
     id="namedview1"
     pagecolor="#ffffff"
     bordercolor="#000000"
     borderopacity="0.25"
     inkscape:showpageshadow="2"
     inkscape:pageopacity="0.0"
     inkscape:pagecheckerboard="0"
     inkscape:deskcolor="#d1d1d1"
     inkscape:document-units="mm"
     inkscape:zoom="1.0469406"
     inkscape:cx="4409.5146"
     inkscape:cy="4313.043"
     inkscape:window-width="1920"
     inkscape:window-height="1009"
     inkscape:window-x="-8"
     inkscape:window-y="-8"
     inkscape:window-maximized="1"
     inkscape:current-layer="layer1"
     showgrid="false"
     showguides="true" /><defs
     id="defs1" /><g
     inkscape:label="Layer 1"
     inkscape:groupmode="layer"
     id="layer1"
     transform="translate(-1011.3527,-1360.2054)"><path
       style="fill:#5b3a2e;fill-opacity:1"
       d="m 1016.9507,1507.1824 c -2.6037,-0.9383 -4.468,-2.8781 -5.206,-5.4167 l -0.392,-1.3484 0.068,-67.0633 0.068,-67.0633 0.7437,-1.5145 0.7438,-1.5146 1.0883,-0.9316 c 0.5986,-0.5123 1.6332,-1.2 2.299,-1.5281 l 1.2106,-0.5966 h 98.5573 98.5573 l 1.4979,0.7357 c 1.725,0.8473 3.2103,2.3713 4.022,4.1267 l 0.5655,1.223 v 67.601 67.6011 l -0.7437,1.5145 -0.7438,1.5146 -1.1083,0.9617 c -0.6096,0.5289 -1.6441,1.2166 -2.299,1.5282 l -1.1906,0.5664 -98.1604,0.057 -98.1604,0.058 z m 172.7292,-16.7678 c -0.3605,-0.345 -7.3229,-6.4514 -15.4721,-13.5699 -8.1491,-7.1186 -19.5733,-17.1055 -25.3869,-22.1932 -5.8137,-5.0877 -10.7084,-9.3363 -10.8772,-9.4413 l -0.3069,-0.191 -8.1728,7.1581 -8.1728,7.158 -1.4552,0.7056 -1.4553,0.7056 -2.1166,2e-4 -2.1167,3e-4 -1.2487,-0.6151 c -1.1635,-0.573 -3.6437,-2.6478 -13.9084,-11.635 l -4.0446,-3.5413 -0.4493,0.3551 c -0.3869,0.3057 -13.2958,11.5086 -15.5386,13.4849 -0.4365,0.3847 -5.5562,4.8395 -11.3771,9.8996 -5.8208,5.0601 -11.2977,9.8235 -12.1708,10.5855 -0.8731,0.762 -4.0878,3.5572 -7.1437,6.2116 -3.056,2.6544 -5.7306,4.9889 -5.9437,5.1878 l -0.3874,0.3616 h 74.2001 74.2002 z m -149.0867,-20.2977 c 9.7398,-8.4754 10.9954,-9.5682 29.6995,-25.847 6.4393,-5.6044 11.7078,-10.2783 11.7078,-10.3865 0,-0.1082 -3.423,-3.1713 -7.6067,-6.8068 -4.1838,-3.6355 -10.1071,-8.7816 -13.1631,-11.4359 -3.0559,-2.6542 -5.9134,-5.1423 -6.35,-5.5291 -1.3448,-1.1915 -25.3431,-22.0861 -26.1222,-22.7439 l -0.733,-0.6188 v 47.1516 47.1517 l 1.6537,-1.4385 c 0.9095,-0.7912 5.8208,-5.0647 10.914,-9.4968 z m 163.6448,-36.3729 v -46.9791 l -2.9765,2.6058 c -1.6371,1.4331 -5.8341,5.1003 -9.3266,8.1492 -3.4925,3.049 -6.7667,5.9162 -7.276,6.3717 -0.5094,0.4555 -4.3194,3.7876 -8.4667,7.4046 -4.1473,3.6171 -7.6721,6.6982 -7.8328,6.847 -0.1607,0.1487 -4.2386,3.7156 -9.062,7.9265 -4.8234,4.2108 -8.7698,7.7344 -8.7698,7.8303 0,0.096 2.0415,1.9489 4.5366,4.1179 2.4952,2.169 4.6681,4.0665 4.8287,4.2167 0.1606,0.1502 3.6853,3.2323 7.8326,6.8492 4.1474,3.6169 7.9574,6.9486 8.4667,7.4039 0.5093,0.4553 4.6087,4.0406 9.1098,7.9675 4.5011,3.9268 10.5137,9.1905 13.3615,11.6971 2.8477,2.5065 5.2669,4.5603 5.3761,4.564 0.1091,0 0.1984,-21.1339 0.1984,-46.9723 z m -69.292,-8.4982 c 10.0978,-8.8298 26.3369,-23.0165 36.0868,-31.5259 9.7499,-8.5094 18.082,-15.8106 18.5158,-16.2249 l 0.7886,-0.7533 -74.2105,0.01 -74.2105,0.01 0.7937,0.6879 c 1.5729,1.3631 18.5913,16.1763 22.6113,19.6814 7.5472,6.5804 14.3171,12.4741 28.5637,24.8667 7.7733,6.7618 15.9291,13.8677 18.1239,15.791 2.1949,1.9233 4.1227,3.5009 4.284,3.5058 0.1614,0 8.5553,-7.2156 18.6532,-16.0455 z"
       id="path232" /></g></svg>
