<?xml version="1.0" encoding="UTF-8" standalone="no"?>
<!-- Created with Inkscape (http://www.inkscape.org/) -->

<svg
   width="222.20181mm"
   height="224.89636mm"
   viewBox="0 0 222.20181 224.89636"
   version="1.1"
   id="svg1"
   xml:space="preserve"
   inkscape:version="1.3 (0e150ed6c4, 2023-07-21)"
   sodipodi:docname="ربوع.svg"
   xmlns:inkscape="http://www.inkscape.org/namespaces/inkscape"
   xmlns:sodipodi="http://sodipodi.sourceforge.net/DTD/sodipodi-0.dtd"
   xmlns="http://www.w3.org/2000/svg"
   xmlns:svg="http://www.w3.org/2000/svg"><sodipodi:namedview
     id="namedview1"
     pagecolor="#ffffff"
     bordercolor="#000000"
     borderopacity="0.25"
     inkscape:showpageshadow="2"
     inkscape:pageopacity="0.0"
     inkscape:pagecheckerboard="0"
     inkscape:deskcolor="#d1d1d1"
     inkscape:document-units="mm"
     inkscape:zoom="1.0469406"
     inkscape:cx="4409.5146"
     inkscape:cy="4313.043"
     inkscape:window-width="1920"
     inkscape:window-height="1009"
     inkscape:window-x="-8"
     inkscape:window-y="-8"
     inkscape:window-maximized="1"
     inkscape:current-layer="layer1"
     showgrid="false"
     showguides="true" /><defs
     id="defs1" /><g
     inkscape:label="Layer 1"
     inkscape:groupmode="layer"
     id="layer1"
     transform="translate(-1190.8997,-1506.5147)"><path
       id="path219"
       style="fill:#d35f5f;fill-opacity:1;stroke-width:0.0499999;stroke-linecap:round;stroke-linejoin:round;stroke-dashoffset:4.23307;paint-order:markers stroke fill"
       d="m 1325.3753,1702.5399 v -15.3142 -31.2209 h -23.151 -23.151 l -0.03,24.5402 c -0.011,9.3037 -0.029,15.2468 -0.045,21.4756 l 23.4482,23.4482 z"
       inkscape:export-filename="..\..\Downloads\logo.png"
       inkscape:export-xdpi="96"
       inkscape:export-ydpi="96" /><path
       id="path220"
       style="fill:#d35f5f;fill-opacity:1;stroke-width:0.0499999;stroke-linecap:round;stroke-linejoin:round;stroke-dashoffset:4.23307;paint-order:markers stroke fill"
       d="m 1294.1897,1547.4714 c 0.1043,0.052 0.178,0.056 0.2852,0.1111 1.126,0.5795 2.1432,1.275 3.1703,2.1931 1.0272,0.9182 2.0644,2.0588 3.2303,3.528 0.8474,1.0677 1.6256,1.8416 1.7296,1.7198 0.104,-0.1219 0.7331,-0.9956 1.3979,-1.9415 0.997,-1.4186 1.9953,-2.5803 3.0592,-3.5435 1.0463,-0.9471 2.1615,-1.6941 3.3957,-2.3125 l -8.0114,-8.0114 z" /><path
       id="path221"
       style="fill:#f9bea1;fill-opacity:1;stroke-width:0.0499999;stroke-linecap:round;stroke-linejoin:round;stroke-dashoffset:4.23307;paint-order:markers stroke fill"
       d="m 1277.8981,1563.7629 c 0,0.01 0,0.015 0.01,0.022 0.4985,1.2526 1.1688,2.5103 2.0133,3.7802 0.8445,1.2698 1.8632,2.5519 3.0588,3.8519 3.0962,3.3668 18.9713,19.2356 19.2468,19.2391 0.1464,10e-5 4.7363,-4.4927 10.1994,-9.9879 4.8686,-4.8973 7.8417,-7.9533 9.7938,-10.1509 0.976,-1.0987 1.6971,-1.9828 2.2716,-2.7755 0.5747,-0.7927 1.0027,-1.4941 1.3942,-2.2268 0.3394,-0.6347 0.5858,-1.3351 0.8351,-2.0303 l -16.2589,-16.259 c -1.2342,0.6184 -2.3494,1.3654 -3.3957,2.3125 -1.0639,0.9632 -2.0622,2.1249 -3.0592,3.5435 -0.6648,0.9459 -1.2939,1.8196 -1.3979,1.9415 -0.104,0.1218 -0.8822,-0.6521 -1.7296,-1.7198 -1.1659,-1.4692 -2.2031,-2.6098 -3.2303,-3.528 -1.0271,-0.9181 -2.0443,-1.6136 -3.1703,-2.1931 -0.1072,-0.055 -0.1809,-0.059 -0.2852,-0.1111 z" /><path
       id="path222"
       style="fill:#f9bea1;fill-opacity:1;stroke-width:0.0499999;stroke-linecap:round;stroke-linejoin:round;stroke-dashoffset:4.23307;paint-order:markers stroke fill"
       d="m 1384.0736,1620.8416 -49.2678,-49.2678 c -0.2685,0.4895 -0.5078,1.0017 -0.8005,1.4707 -0.6203,0.9942 -1.2941,1.9407 -2.0174,2.8309 -0.9876,1.2153 -6.0937,6.4959 -11.3472,11.7346 -5.2534,5.2388 -9.5521,9.6512 -9.5523,9.8056 -3e-4,0.1638 1.1063,1.2442 2.6189,2.6087 1.5126,1.3644 3.431,3.0128 5.0535,4.3124 1.6481,1.3201 4.0093,2.983 6.4316,4.563 2.4223,1.5799 4.9055,3.077 6.7975,4.0659 1.7769,0.9287 3.5761,1.787 5.3956,2.5751 1.8194,0.7879 3.6592,1.5056 5.518,2.1523 1.8587,0.6465 3.7365,1.2224 5.6311,1.727 1.8947,0.5045 3.8064,0.9377 5.7335,1.2996 1.9272,0.362 3.8697,0.6527 5.826,0.8713 1.9564,0.2187 3.9266,0.3656 5.9087,0.4403 1.9822,0.075 3.9764,0.077 5.9811,0.01 2.0046,-0.07 4.0198,-0.2119 6.0435,-0.4269 2.3454,-0.2492 4.6526,-0.5559 6.0462,-0.77 z" /><path
       id="path223"
       style="fill:#f9bea1;fill-opacity:1;stroke-width:0.0499999;stroke-linecap:round;stroke-linejoin:round;stroke-dashoffset:4.23307;paint-order:markers stroke fill"
       d="m 1269.7958,1571.8653 -49.0213,49.0213 c 1.2003,0.1481 2.3073,0.2766 3.7946,0.4893 2.4654,0.3527 6.3039,0.5636 10.1534,0.6145 3.8494,0.051 7.7096,-0.059 10.2195,-0.3457 1.7198,-0.1967 3.4213,-0.4509 5.1155,-0.7653 1.6941,-0.3146 3.3808,-0.689 5.0715,-1.1272 1.6907,-0.4381 3.3852,-0.9398 5.0948,-1.5073 1.7095,-0.5676 3.4344,-1.2011 5.1852,-1.9038 1.3604,-0.546 3.7355,-1.669 6.0523,-2.8308 2.3168,-1.1619 4.5751,-2.3625 5.702,-3.0639 2.2205,-1.3822 4.8897,-3.255 7.4812,-5.2193 2.5915,-1.9645 5.1052,-4.0205 7.015,-5.7692 l 2.0868,-1.9105 -10.4573,-10.5249 c -5.4011,-5.4358 -8.4952,-8.6127 -10.5042,-10.959 -1.0046,-1.1732 -1.7377,-2.1389 -2.3529,-3.0753 -0.2381,-0.3625 -0.4245,-0.7588 -0.6361,-1.1229 z" /><path
       id="path224"
       style="fill:#d35f5f;fill-opacity:1;stroke-width:0.0499999;stroke-linecap:round;stroke-linejoin:round;stroke-dashoffset:4.23307;paint-order:markers stroke fill"
       d="m 1269.7958,1571.8653 c 0.2116,0.3641 0.398,0.7604 0.6361,1.1229 0.6152,0.9364 1.3483,1.9021 2.3529,3.0753 2.009,2.3463 5.1031,5.5232 10.5042,10.959 l 10.4573,10.5249 -2.0868,1.9105 c -1.9098,1.7487 -4.4235,3.8047 -7.015,5.7692 -2.5915,1.9643 -5.2607,3.8371 -7.4812,5.2193 -1.1269,0.7014 -3.3852,1.902 -5.702,3.0639 -2.3168,1.1618 -4.6919,2.2848 -6.0523,2.8308 -1.7508,0.7027 -3.4757,1.3362 -5.1852,1.9038 -1.7096,0.5675 -3.4041,1.0692 -5.0948,1.5073 -1.6907,0.4382 -3.3774,0.8126 -5.0715,1.1272 -1.6942,0.3144 -3.3957,0.5686 -5.1155,0.7653 -2.5099,0.2869 -6.3701,0.3965 -10.2195,0.3457 -3.8495,-0.051 -7.688,-0.2618 -10.1534,-0.6145 -1.4873,-0.2127 -2.5943,-0.3412 -3.7946,-0.4893 l -3.6137,3.6137 v 15.6828 l 13.0663,13.0663 0.03,-18.5477 4.498,0.08 c 2.321,0.041 4.6859,-0.023 7.0734,-0.1896 2.3876,-0.1668 4.7975,-0.4359 7.2079,-0.8041 2.4103,-0.3684 4.8214,-0.8357 7.2109,-1.3989 2.3895,-0.5631 4.7578,-1.2222 7.0827,-1.9735 1.6138,-0.5215 3.2279,-1.1007 4.8375,-1.7348 1.6096,-0.6341 3.2144,-1.323 4.8095,-2.0634 3.1903,-1.4808 6.3415,-3.1679 9.4124,-5.0364 3.0708,-1.8685 6.0615,-3.9185 8.9306,-6.1247 2.8692,-2.2063 5.6174,-4.5687 8.2027,-7.0627 l 2.8608,-2.76 2.9626,2.912 c 2.4803,2.4379 5.0902,4.7251 7.8134,6.8518 2.7233,2.1267 5.5603,4.0934 8.4956,5.89 2.9354,1.7967 5.9692,3.4233 9.0858,4.8711 3.1166,1.4477 6.316,2.7162 9.5829,3.7961 2.5901,0.8561 5.0068,1.5775 7.3339,2.1782 2.3271,0.6007 4.5642,1.0809 6.7955,1.4542 2.2312,0.3732 4.4567,0.6395 6.7593,0.8134 2.3024,0.1738 4.6823,0.2553 7.2233,0.2578 l 5.8869,0.01 v 18.9244 l 12.884,-12.8839 c -0.019,-5.23 -0.022,-15.7312 -0.047,-16.7799 l -3.0866,-3.0866 c -1.3936,0.2141 -3.7008,0.5208 -6.0462,0.77 -2.0237,0.215 -4.0389,0.357 -6.0435,0.4269 -2.0047,0.07 -3.9989,0.067 -5.9811,-0.01 -1.9821,-0.075 -3.9523,-0.2216 -5.9087,-0.4403 -1.9563,-0.2186 -3.8988,-0.5093 -5.826,-0.8713 -1.9271,-0.3619 -3.8388,-0.7951 -5.7335,-1.2996 -1.8946,-0.5046 -3.7724,-1.0805 -5.6311,-1.727 -1.8588,-0.6467 -3.6986,-1.3644 -5.518,-2.1523 -1.8195,-0.7881 -3.6187,-1.6464 -5.3956,-2.5751 -1.892,-0.9889 -4.3752,-2.486 -6.7975,-4.0659 -2.4223,-1.58 -4.7835,-3.2429 -6.4316,-4.563 -1.6225,-1.2996 -3.5409,-2.948 -5.0535,-4.3124 -1.5126,-1.3645 -2.6192,-2.4449 -2.6189,-2.6087 2e-4,-0.1544 4.2989,-4.5668 9.5523,-9.8056 5.2535,-5.2387 10.3596,-10.5193 11.3472,-11.7346 0.7233,-0.8902 1.3971,-1.8367 2.0174,-2.8309 0.2927,-0.469 0.532,-0.9812 0.8005,-1.4707 l -8.089,-8.0889 c -0.2493,0.6952 -0.4957,1.3956 -0.8351,2.0303 -0.3915,0.7327 -0.8195,1.4341 -1.3942,2.2268 -0.5745,0.7927 -1.2956,1.6768 -2.2716,2.7755 -1.9521,2.1976 -4.9252,5.2536 -9.7938,10.1509 -5.4631,5.4952 -10.053,9.988 -10.1994,9.9879 -0.2755,0 -16.1506,-15.8723 -19.2468,-19.2391 -1.1956,-1.3 -2.2143,-2.5821 -3.0588,-3.8519 -0.8445,-1.2699 -1.5148,-2.5276 -2.0133,-3.7802 0,-0.01 0,-0.015 -0.01,-0.022 z" /><rect
       style="fill:#f9bea1;fill-opacity:1;stroke-width:0.0499999;stroke-linecap:round;stroke-linejoin:round;stroke-dashoffset:4.23307;paint-order:markers stroke fill"
       id="rect224"
       width="144.1494"
       height="27.177015"
       x="1230.1736"
       y="1691.2695" /><path
       style="fill:#39251e;fill-opacity:1"
       d="m 1193.8775,1724.9288 v -6.4822 h 11.6417 11.6416 v -48.9842 -48.9841 l 1.6537,0.1555 c 0.9095,0.085 3.4991,0.4194 5.7547,0.7421 4.9307,0.7054 15.3531,0.8429 20.3729,0.2689 6.8792,-0.7866 13.4635,-2.4928 20.4667,-5.3036 2.721,-1.092 9.5005,-4.4921 11.7544,-5.8949 4.4411,-2.7643 10.6769,-7.491 14.4966,-10.9884 l 2.0866,-1.9105 -10.4576,-10.5249 c -10.8022,-10.8716 -12.3744,-12.7078 -14.5006,-16.9347 -1.1164,-2.2195 -2.1452,-5.4149 -2.3659,-7.3485 -0.1,-0.8732 -0.2934,-1.528 -0.4304,-1.4552 -0.3853,0.2045 -32.1922,32.3991 -52.8023,53.4458 -7.1964,7.3488 -13.1471,13.3915 -13.2238,13.4283 -0.077,0.037 -2.148,-1.9442 -4.6028,-4.4022 l -4.4633,-4.469 8.0454,-8.1656 c 4.4249,-4.491 13.8712,-14.1186 20.9918,-21.3946 7.1206,-7.2761 17.6002,-17.9322 23.288,-23.6802 5.6879,-5.7481 14.3244,-14.5018 19.1924,-19.4527 27.2501,-27.7144 39.5684,-40.0787 39.93,-40.0792 0.2234,-4e-4 2.5907,2.2321 5.2606,4.9609 2.6699,2.7289 8.207,8.3549 12.3046,12.5022 16.9977,17.2037 43.7037,44.3376 55.2072,56.0917 6.7649,6.9122 16.1212,16.4372 20.7918,21.1666 11.1083,11.2481 16.4902,16.7848 16.9404,17.4275 0.2008,0.2867 0.3011,0.6878 0.223,0.8914 -0.078,0.2036 -2.0553,2.2611 -4.3938,4.5724 l -4.2518,4.2021 -1.4821,-1.5743 c -2.8945,-3.0744 -19.8701,-20.4872 -28.1028,-28.8264 -4.5972,-4.6566 -11.2088,-11.3817 -14.6924,-14.9445 -3.4836,-3.5629 -9.7848,-9.9658 -14.0027,-14.2287 l -7.6688,-7.7508 -0.4437,2.0281 c -1.0551,4.8223 -3.1556,9.2819 -6.049,12.8425 -0.9876,1.2153 -6.0939,6.4959 -11.3473,11.7347 -5.2535,5.2387 -9.5519,9.6513 -9.5522,9.8057 -5e-4,0.3275 4.4276,4.3219 7.6725,6.921 3.2963,2.6402 9.4452,6.6509 13.2292,8.6287 14.2153,7.4301 29.8473,10.3659 46.0375,8.646 2.6921,-0.286 5.8152,-0.6836 6.9403,-0.8836 1.125,-0.2 2.1072,-0.3019 2.1828,-0.2263 0.075,0.075 0.1373,22.144 0.1373,49.0411 v 48.9039 h 11.6314 11.6313 l 0.011,6.4822 0.011,6.4823 h -108.3471 -108.3472 z m 85.1005,-13.2291 c 0.02,-3.638 0.05,-17.6577 0.066,-31.1547 l 0.029,-24.5401 h 23.1511 23.151 v 31.2208 31.2209 h 24.474 24.4739 v -41.8895 -41.8894 l -5.8869,-0.01 c -10.1638,-0.01 -17.7516,-1.2787 -28.112,-4.7033 -13.0676,-4.3196 -25.0562,-11.6575 -34.9773,-21.409 l -2.9627,-2.912 -2.8611,2.76 c -10.3413,9.9756 -23.2824,17.8498 -36.1927,22.0218 -9.3001,3.0054 -19.2907,4.532 -28.575,4.3663 l -4.4979,-0.08 -0.068,41.5396 c -0.037,22.8468 -0.011,41.689 0.058,41.8717 0.1004,0.2638 5.1227,0.3182 24.4096,0.2646 l 24.2833,-0.068 z m 33.4439,-131.0315 c 9.7372,-9.7945 11.8938,-12.2224 13.4601,-15.1527 1.8419,-3.446 2.3873,-8.0181 1.3305,-11.1551 -1.0922,-3.2422 -3.6786,-6.2215 -6.5996,-7.6021 -1.3168,-0.6224 -1.7591,-0.6878 -4.6502,-0.6878 h -3.1951 l -2.2526,1.1162 c -2.5188,1.2483 -4.5181,3.0582 -6.5121,5.8953 -0.6648,0.9459 -1.2938,1.8195 -1.3977,1.9414 -0.104,0.1218 -0.8823,-0.6521 -1.7297,-1.7198 -2.3319,-2.9385 -4.1487,-4.5624 -6.4007,-5.7213 -2.6122,-1.3441 -4.3407,-1.7397 -6.9432,-1.589 -5.2572,0.3043 -9.7875,4.7114 -10.5788,10.2912 -0.7127,5.0247 1.2407,9.9325 6.0228,15.1325 3.0962,3.3667 18.9718,19.2357 19.2473,19.2392 0.1463,0 4.7359,-4.4927 10.199,-9.988 z m -8.4493,-42.2879 c 2.0776,-1.2621 4.1948,-2.0981 6.5451,-2.5846 1.0684,-0.2211 2.0123,-0.4718 2.0976,-0.5571 0.085,-0.085 -2.1976,-2.5185 -5.0731,-5.4071 l -5.2282,-5.252 -5.0719,5.1441 c -2.7895,2.8292 -5.1061,5.2372 -5.1479,5.351 -0.042,0.1138 0.9913,0.4559 2.2957,0.7601 2.175,0.5072 5.7523,2.0629 7.0407,3.0618 0.7264,0.5632 0.7846,0.5514 2.542,-0.5162 z"
       id="path225"
       sodipodi:nodetypes="cccccccssssscssssssscsssssssssssscsssscsssssssssscccccccccsccccccccccsscsssccccccssssscsssssssscssssscsssss" /></g></svg>
