<?xml version="1.0" encoding="UTF-8" standalone="no"?>
<!-- Created with Inkscape (http://www.inkscape.org/) -->

<svg
   width="115.75521mm"
   height="115.75521mm"
   viewBox="0 0 115.75521 115.75521"
   version="1.1"
   id="svg1"
   xml:space="preserve"
   inkscape:version="1.3 (0e150ed6c4, 2023-07-21)"
   sodipodi:docname="ربوع.svg"
   xmlns:inkscape="http://www.inkscape.org/namespaces/inkscape"
   xmlns:sodipodi="http://sodipodi.sourceforge.net/DTD/sodipodi-0.dtd"
   xmlns="http://www.w3.org/2000/svg"
   xmlns:svg="http://www.w3.org/2000/svg"><sodipodi:namedview
     id="namedview1"
     pagecolor="#ffffff"
     bordercolor="#000000"
     borderopacity="0.25"
     inkscape:showpageshadow="2"
     inkscape:pageopacity="0.0"
     inkscape:pagecheckerboard="0"
     inkscape:deskcolor="#d1d1d1"
     inkscape:document-units="mm"
     inkscape:zoom="1.0469406"
     inkscape:cx="4409.5146"
     inkscape:cy="4313.043"
     inkscape:window-width="1920"
     inkscape:window-height="1009"
     inkscape:window-x="-8"
     inkscape:window-y="-8"
     inkscape:window-maximized="1"
     inkscape:current-layer="layer1"
     showgrid="false"
     showguides="true" /><defs
     id="defs1" /><g
     inkscape:label="Layer 1"
     inkscape:groupmode="layer"
     id="layer1"
     transform="translate(-1387.5171,-1349.0593)"><path
       style="fill:#39251e;fill-opacity:1"
       d="m 1413.7109,1464.3923 c -13.022,-2.3048 -23.2076,-12.4164 -25.8269,-25.6393 l -0.3669,-1.8521 v -30.0302 -30.0302 l 0.3669,-1.8521 c 2.441,-12.3231 11.3084,-21.7828 23.5178,-25.089 l 3.1028,-0.8402 h 30.824 30.8239 l 3.1028,0.8402 c 12.4272,3.3651 21.4347,13.1282 23.6075,25.5879 l 0.4095,2.3486 v 29.1671 29.1671 l -0.4095,2.3486 c -2.2977,13.176 -12.7102,23.5885 -25.8862,25.8862 l -2.3486,0.4096 -29.4002,-0.024 -29.4003,-0.024 z m 59.4304,-10.4729 c 9.2987,-2.5522 16.2457,-9.2992 18.8851,-18.3414 l 0.6951,-2.3813 0.1558,-2.324 c 0.086,-1.2782 0.2569,-2.3866 0.3806,-2.463 l 0.2248,-0.139 v -20.8203 -20.8203 l -0.2554,-3.0427 c -0.9538,-11.361 -8.405,-20.4001 -19.4524,-23.5981 l -2.1119,-0.6113 h -26.1938 -26.1937 l -2.1119,0.6113 c -9.2008,2.6634 -16.0446,9.5073 -18.708,18.7081 l -0.6114,2.1118 v 26.0615 26.0615 l 0.6043,2.0859 c 3.0507,10.5319 11.3201,17.8753 21.9078,19.4546 l 1.565,0.2334 24.3417,-0.044 24.3417,-0.044 z m -32.3674,-17.5611 c -17.9745,-2.7987 -29.3122,-21.6767 -23.4786,-39.0929 3.1575,-9.4265 11.0629,-16.8046 20.8162,-19.4277 l 2.5869,-0.6957 h 4.6302 4.6302 l 2.6458,0.7102 2.6459,0.7102 2.9104,1.4411 c 13.4393,6.6545 19.7327,21.8913 14.9447,36.1824 -4.5998,13.7296 -18.4025,22.3413 -32.3317,20.1724 z m 8.9441,-10.434 c 1.1511,-0.289 3.1049,-1.0289 4.3418,-1.6441 l 2.249,-1.1186 2.5437,-2.5274 2.5438,-2.5275 1.203,-2.5091 c 0.6617,-1.3801 1.3922,-3.2907 1.6234,-4.2459 l 0.4205,-1.7367 v -2.6527 -2.6528 l -0.5256,-2.0928 c -1.7054,-6.7918 -6.7036,-12.0365 -13.5067,-14.1727 l -1.975,-0.6202 h -3.4396 -3.4396 l -1.9844,0.62 c -1.0914,0.3409 -2.9067,1.0981 -4.034,1.6827 l -2.0497,1.0627 -1.8429,1.7063 c -11.3647,10.5219 -6.6556,29.5125 8.2898,33.4308 l 1.8858,0.4944 2.8019,0.015 2.802,0.015 z m 24.9671,-43.4908 c -2.925,-0.7889 -5.0149,-3.6698 -5.0149,-6.9131 v -1.3735 l 0.8299,-1.6607 0.8298,-1.6606 1.172,-0.829 c 1.5615,-1.1045 2.5668,-1.4467 4.3121,-1.4678 l 1.4552,-0.018 1.3229,0.627 c 1.7379,0.8236 2.4444,1.5341 3.2286,3.2469 l 0.6475,1.4144 0.01,1.6676 0.01,1.6676 -0.5955,1.3842 -0.5954,1.3841 -1.1924,1.0496 -1.1924,1.0496 -1.3323,0.3957 c -1.5705,0.4663 -2.2731,0.4728 -3.8943,0.035 z"
       id="path235" /></g></svg>
