<?xml version="1.0" encoding="UTF-8" standalone="no"?>
<!-- Created with Inkscape (http://www.inkscape.org/) -->

<svg
   width="158.34566mm"
   height="156.22639mm"
   viewBox="0 0 158.34566 156.22639"
   version="1.1"
   id="svg1"
   xml:space="preserve"
   inkscape:version="1.3 (0e150ed6c4, 2023-07-21)"
   sodipodi:docname="ربوع.svg"
   xmlns:inkscape="http://www.inkscape.org/namespaces/inkscape"
   xmlns:sodipodi="http://sodipodi.sourceforge.net/DTD/sodipodi-0.dtd"
   xmlns="http://www.w3.org/2000/svg"
   xmlns:svg="http://www.w3.org/2000/svg"><sodipodi:namedview
     id="namedview1"
     pagecolor="#ffffff"
     bordercolor="#000000"
     borderopacity="0.25"
     inkscape:showpageshadow="2"
     inkscape:pageopacity="0.0"
     inkscape:pagecheckerboard="0"
     inkscape:deskcolor="#d1d1d1"
     inkscape:document-units="mm"
     inkscape:zoom="1.0469406"
     inkscape:cx="4409.5146"
     inkscape:cy="4313.043"
     inkscape:window-width="1920"
     inkscape:window-height="1009"
     inkscape:window-x="-8"
     inkscape:window-y="-8"
     inkscape:window-maximized="1"
     inkscape:current-layer="layer1"
     showgrid="false"
     showguides="true" /><defs
     id="defs1" /><g
     inkscape:label="Layer 1"
     inkscape:groupmode="layer"
     id="layer1"
     transform="translate(-485.45573,-1423.0264)"><path
       style="fill:#5b3a2e;fill-opacity:1;stroke-width:1"
       d="m 587.8234,1578.177 c -18.98192,-4.2068 -45.97071,-21.125 -65.01708,-40.7567 -22.37012,-23.0576 -35.26037,-47.8309 -36.89737,-70.9116 l -0.45322,-6.39 0.85746,-5.8643 c 2.06783,-14.1419 8.24701,-23.464 18.98504,-28.6409 l 5.25422,-2.533 7.69426,-0.027 7.69428,-0.027 10.71523,17.9068 10.71523,17.907 0.0366,3.0194 c 0.0616,5.0568 -2.63986,8.4491 -13.05448,16.3934 l -4.27557,3.2616 -0.73891,2.1196 -0.7389,2.1196 1.79596,3.397 c 0.98778,1.8682 4.04277,6.7106 6.78891,10.7614 l 4.99295,7.3646 6.8196,7.086 c 7.36191,7.6497 14.49768,13.2732 24.2229,19.09 8.73807,5.2262 9.0081,5.1577 16.38885,-4.1543 2.65282,-3.3468 5.96603,-6.9567 7.36271,-8.022 l 2.53941,-1.937 3.75809,-0.3116 3.75807,-0.3116 16.18653,9.2531 16.18656,9.2527 1.42051,1.8059 c 0.78127,0.9934 1.77144,3.1077 2.20034,4.6989 l 0.77984,2.8927 -0.42862,3.8622 -0.42861,3.8623 -2.81453,5.7409 -2.81456,5.7406 -3.07901,2.7103 c -4.2949,3.7806 -8.8883,6.13 -16.23211,8.3032 l -6.30469,1.8653 -9.48019,0.2742 -9.48016,0.2741 z"
       id="path233" /></g></svg>
