<?xml version="1.0" encoding="UTF-8" standalone="no"?>
<!-- Created with Inkscape (http://www.inkscape.org/) -->

<svg
   width="198.33434mm"
   height="262.60672mm"
   viewBox="0 0 198.33434 262.60672"
   version="1.1"
   id="svg1"
   xml:space="preserve"
   inkscape:version="1.3 (0e150ed6c4, 2023-07-21)"
   sodipodi:docname="ربوع.svg"
   xmlns:inkscape="http://www.inkscape.org/namespaces/inkscape"
   xmlns:sodipodi="http://sodipodi.sourceforge.net/DTD/sodipodi-0.dtd"
   xmlns="http://www.w3.org/2000/svg"
   xmlns:svg="http://www.w3.org/2000/svg"><sodipodi:namedview
     id="namedview1"
     pagecolor="#ffffff"
     bordercolor="#000000"
     borderopacity="0.25"
     inkscape:showpageshadow="2"
     inkscape:pageopacity="0.0"
     inkscape:pagecheckerboard="0"
     inkscape:deskcolor="#d1d1d1"
     inkscape:document-units="mm"
     inkscape:zoom="1.0469406"
     inkscape:cx="4409.5146"
     inkscape:cy="4313.043"
     inkscape:window-width="1920"
     inkscape:window-height="1009"
     inkscape:window-x="-8"
     inkscape:window-y="-8"
     inkscape:window-maximized="1"
     inkscape:current-layer="layer1"
     showgrid="false"
     showguides="true" /><defs
     id="defs1" /><g
     inkscape:label="Layer 1"
     inkscape:groupmode="layer"
     id="layer1"
     transform="translate(-445.46711,-2244.3713)"><path
       style="fill:#5b3a2e;fill-opacity:1"
       d="m 525.26328,2498.0135 c -22.02736,-11.5131 -29.50822,-17.1122 -45.35559,-33.9468 l -12.99074,-13.8 -8.3357,-17.0145 -8.3357,-17.0144 -2.38921,-10.9807 -2.38921,-10.9807 v -58.5065 -58.5065 l 49.59212,-16.4461 49.59212,-16.4461 49.57508,16.4987 49.575,16.4987 v 56.9123 56.9123 l -2.352,11.7595 c -8.2196,41.0951 -36.2045,74.5548 -81.14677,97.0217 -7.74497,3.8717 -14.95366,7.0234 -16.01931,7.0036 -1.06565,-0.02 -9.62469,-4.0537 -19.02009,-8.9645 z m 33.70871,-23.7601 c 30.21326,-17.2177 48.92786,-39.0402 58.25786,-67.9323 l 2.7096,-8.3911 0.608,-51.8826 0.608,-51.8826 -38.3466,-12.6633 -38.34653,-12.6633 -38.05523,12.651 -38.05523,12.651 0.0265,47.3179 0.0265,47.318 2.22248,10.6796 2.22248,10.6795 6.17586,12.2052 c 11.5346,22.7955 29.17845,40.4235 53.40345,53.3553 12.53095,6.6892 12.24687,6.7047 26.54288,-1.4423 z"
       id="path230" /></g></svg>
