<?xml version="1.0" encoding="UTF-8" standalone="no"?>
<!-- Created with Inkscape (http://www.inkscape.org/) -->

<svg
   width="212.66331mm"
   height="122.31424mm"
   viewBox="0 0 212.66331 122.31424"
   version="1.1"
   id="svg1"
   xml:space="preserve"
   inkscape:version="1.3 (0e150ed6c4, 2023-07-21)"
   sodipodi:docname="ربوع.svg"
   xmlns:inkscape="http://www.inkscape.org/namespaces/inkscape"
   xmlns:sodipodi="http://sodipodi.sourceforge.net/DTD/sodipodi-0.dtd"
   xmlns="http://www.w3.org/2000/svg"
   xmlns:svg="http://www.w3.org/2000/svg"><sodipodi:namedview
     id="namedview1"
     pagecolor="#ffffff"
     bordercolor="#000000"
     borderopacity="0.25"
     inkscape:showpageshadow="2"
     inkscape:pageopacity="0.0"
     inkscape:pagecheckerboard="0"
     inkscape:deskcolor="#d1d1d1"
     inkscape:document-units="mm"
     inkscape:zoom="1.0469406"
     inkscape:cx="4409.5146"
     inkscape:cy="4313.043"
     inkscape:window-width="1920"
     inkscape:window-height="1009"
     inkscape:window-x="-8"
     inkscape:window-y="-8"
     inkscape:window-maximized="1"
     inkscape:current-layer="layer1"
     showgrid="false"
     showguides="true" /><defs
     id="defs1" /><g
     inkscape:label="Layer 1"
     inkscape:groupmode="layer"
     id="layer1"
     transform="translate(-839.25606,-1657.2895)"><path
       style="fill:#4f5a3e;fill-opacity:1"
       d="m 850.1702,1779.0614 c -0.3274,-0.2731 -0.5953,-0.6836 -0.5953,-0.9122 v -0.4155 l 0.6669,-0.1674 c 0.3667,-0.092 1.1934,-0.035 1.8369,0.1273 1.6534,0.4163 3.2475,0.3656 4.0865,-0.1301 l 0.7189,-0.4246 0.353,-1.1957 0.3531,-1.1957 -0.1711,-3.1813 -0.1711,-3.1814 0.2969,-0.3577 c 0.4151,-0.5002 1.1289,-0.4454 1.6463,0.1262 l 0.4378,0.4838 v 2.4927 c 0,1.371 0.075,2.7606 0.1631,3.0881 l 0.1595,0.5953 2.4166,-0.01 2.4165,-0.01 0.4635,-0.3519 0.4636,-0.3519 0.043,-2.484 c 0.048,-2.7612 0.2283,-3.5193 0.9002,-3.7772 l 0.4554,-0.1747 0.5232,0.4694 0.5232,0.4694 -0.1253,2.7781 c -0.149,3.3041 -0.1149,3.4396 0.8662,3.4396 h 0.7614 l 0.5395,-0.5791 0.5394,-0.579 v -1.3204 c 0,-0.7262 -0.1408,-1.7099 -0.313,-2.186 l -0.313,-0.8656 0.3074,-0.6746 0.3073,-0.6745 h 0.4938 c 0.2716,0 0.7006,0.2285 0.9534,0.5078 l 0.4595,0.5077 -0.046,2.6011 c -0.025,1.4306 -0.035,2.8564 -0.022,3.1683 l 0.024,0.5672 0.9933,-0.2521 0.9932,-0.2521 0.3297,-0.6986 0.3297,-0.6985 v -2.5838 -2.5838 l 0.5614,-0.3004 0.5614,-0.3005 0.563,0.5653 0.5631,0.5653 -0.071,2.0409 c -0.039,1.1226 -0.2194,2.6925 -0.4014,3.4887 l -0.3308,1.4477 -0.9215,0.6216 -0.9215,0.6215 -1.8521,-0.14 c -1.0186,-0.077 -2.0307,-0.1545 -2.249,-0.1722 -0.2182,-0.018 -2.4356,0.04 -4.9274,0.1275 l -4.5305,0.1596 -0.6537,-0.2485 -0.6537,-0.2485 -0.6366,0.5768 c -0.3501,0.3172 -0.7646,0.8133 -0.921,1.1022 -0.1564,0.289 -0.6633,0.7192 -1.1264,0.956 l -0.8421,0.4305 -1.2101,-0.2581 -1.2101,-0.2581 -1.1541,0.2906 c -1.5652,0.3941 -2.0091,0.3574 -2.7056,-0.2237 z m 71.2727,0.1097 c -0.2845,-0.7413 -0.1828,-1.4577 0.2294,-1.6158 0.4974,-0.1909 0.2538,-0.6255 -0.3507,-0.6255 -0.6573,0 -2.4259,-1.541 -2.4259,-2.1138 0,-0.2684 -0.1155,-0.5276 -0.2567,-0.5761 -0.1411,-0.049 -0.2887,-0.8621 -0.328,-1.808 l -0.071,-1.7198 0.4725,-0.9917 0.4724,-0.9916 0.7155,-0.3596 c 0.3935,-0.1978 1.115,-0.4357 1.6035,-0.5287 l 0.8881,-0.1691 0.964,0.4509 c 1.1472,0.5367 1.6056,1.0602 1.617,1.8466 0,0.3189 0.1275,0.6533 0.273,0.7432 l 0.2646,0.1636 v 1.9687 1.9688 h 1.4259 1.4259 l 0.6246,-0.5062 0.6246,-0.5062 6e-4,-4.3759 6e-4,-4.376 0.3288,-0.3288 0.3288,-0.3288 0.7289,0.2563 0.729,0.2564 0.046,3.8301 0.046,3.8301 -0.27,0.9261 c -0.1485,0.5093 -0.4825,1.3395 -0.7421,1.8449 l -0.472,0.9188 -1.6852,0.3216 c -0.9269,0.1769 -2.1019,0.3354 -2.6112,0.3524 l -0.9261,0.031 -0.8151,1.2423 -0.8151,1.2424 -0.9372,0.08 -0.9371,0.08 z m 1.8961,-6.1397 0.078,-1.9142 -0.2854,-0.5332 -0.2854,-0.5333 H 921.8231 920.8 l -0.283,0.8116 -0.2829,0.8117 0.1604,1.2389 c 0.088,0.6813 0.3466,1.453 0.5742,1.7147 l 0.4139,0.4758 0.9396,-0.079 0.9395,-0.079 z m 33.3921,4.7054 c -1.51,-0.1801 -3.7242,-1.1024 -4.6139,-1.922 -0.2821,-0.2598 -0.6014,-0.4725 -0.7096,-0.4725 -0.2757,0 -2.4247,-2.3023 -3.334,-3.5718 -0.8792,-1.2275 -1.5779,-2.6332 -2.2356,-4.4979 l -0.4667,-1.323 -0.01,-3.9309 -0.01,-3.9308 0.4308,-1.89 c 0.9486,-4.1624 3.8526,-8.8556 6.713,-10.8491 1.8747,-1.3065 2.2832,-1.4629 4.583,-1.7547 l 2.1639,-0.2745 20.8647,0.019 c 11.4756,0.011 20.9234,-0.039 20.9952,-0.1111 0.072,-0.072 -0.3281,-0.2165 -0.8886,-0.3215 -1.6911,-0.3167 -2.6196,-0.8223 -3.9777,-2.1662 l -1.2944,-1.2808 -0.4532,-1.4035 c -0.2493,-0.7719 -0.4533,-1.9394 -0.4533,-2.5944 0,-1.2214 0.7579,-3.7754 1.1204,-3.7754 0.1114,0 0.2034,-0.2084 0.2044,-0.463 0,-0.5503 2.1001,-2.8043 4.4953,-4.83 3.3985,-2.8742 7.9382,-7.2726 7.9382,-7.691 0,-0.1141 0.16,-0.3674 0.3555,-0.5629 2.8744,-2.8744 4.1535,-9.1652 2.8051,-13.7961 l -0.3732,-1.2815 0.495,-0.3619 0.4949,-0.3619 0.5345,0.2861 c 2.8455,1.5229 8.9174,9.4801 8.9174,11.6863 0,0.1852 0.098,0.4498 0.2178,0.5881 0.1198,0.1382 0.4329,0.9657 0.6957,1.8388 0.2628,0.8732 0.5815,1.861 0.7082,2.1953 0.3183,0.8399 0.2906,8.944 -0.034,10.0229 -0.1455,0.4833 -0.3974,1.3252 -0.5596,1.8709 -0.2832,0.9524 -0.775,2.1947 -1.3546,3.4217 -0.1501,0.3176 -0.2045,0.7556 -0.1209,0.9733 l 0.1519,0.3958 1.7749,-0.1138 c 0.9762,-0.063 1.9357,-0.2473 2.1322,-0.4104 l 0.3573,-0.2965 v -33.2448 -33.2448 l 0.7833,-0.9503 c 0.4308,-0.5226 1.8376,-1.6724 3.1264,-2.555 2.6405,-1.8085 4.691,-3.713 4.9649,-4.6113 0.2707,-0.8877 0.9214,-1.529 1.5513,-1.5289 l 0.5543,10e-5 0.069,38.0617 0.069,38.0616 -0.4022,0.9626 c -0.4375,1.0472 -2.497,3.3472 -2.997,3.3472 -0.1705,0 -0.3099,0.1091 -0.3099,0.2423 0,0.2244 -1.166,1.4075 -2.5797,2.6175 -0.3275,0.2803 -0.5953,0.5967 -0.5953,0.7032 0,0.2165 -2.0585,2.2637 -3.4008,3.3823 l -0.8732,0.7276 h -6.7997 -6.7998 l -3.6971,3.655 -3.6972,3.6549 -0.8588,0.3455 -0.8588,0.3455 -14.3547,-0.1616 c -16.0087,-0.1803 -16.929,-0.2517 -21.3662,-1.6591 l -1.4552,-0.4615 -2.8443,-0.098 -2.8443,-0.098 -1.3799,0.7441 c -2.5577,1.3792 -3.8919,2.9364 -5.8516,6.8295 -2.1313,4.2338 -1.1694,11.0404 2.0072,14.2039 l 1.1467,1.142 1.5758,0.4542 c 0.8667,0.2498 2.6117,0.5099 3.8777,0.5779 l 2.3019,0.1237 0.079,-1.3238 0.079,-1.3238 0.7178,-0.4339 0.7178,-0.434 0.6713,0.6307 0.6712,0.6306 v 0.8607 0.8607 l -0.7275,0.5723 -0.7275,0.5722 -0.8738,-0.1418 -0.8738,-0.1418 -0.1448,0.3774 c -0.3083,0.8033 -2.597,1.0609 -5.913,0.6654 z m 55.6287,-42.5256 c 0.2815,-0.1657 0.2305,-2.7988 -0.097,-4.9803 -0.1527,-1.0187 -0.3348,-2.2688 -0.4046,-2.7781 -0.07,-0.5094 -0.2224,-1.1642 -0.339,-1.4552 -0.1166,-0.2911 -0.4241,-1.1841 -0.6833,-1.9844 -0.49,-1.5128 -1.0633,-2.3856 -1.5602,-2.3753 -0.1594,0 -1.1344,0.807 -2.1668,1.786 -1.0324,0.9789 -2.5206,2.3779 -3.3073,3.1087 -0.7866,0.7308 -1.6446,1.6585 -1.9065,2.0614 l -0.4762,0.7325 0.2686,0.8491 c 0.1477,0.467 0.342,1.2062 0.4316,1.6428 l 0.163,0.7937 1.1029,1.0533 1.103,1.0533 3.0427,0.4353 c 2.7189,0.3889 4.2346,0.4069 4.8287,0.057 z m -164.7693,41.4334 c -0.291,-0.1646 -0.9072,-0.7066 -1.3692,-1.2045 l -0.84,-0.9053 -0.1678,0.2715 -0.1678,0.2715 h -1.6565 -1.6565 l -0.7983,-0.7276 c -0.439,-0.4002 -0.9963,-1.1329 -1.2383,-1.6282 l -0.44,-0.9005 v -1.5453 -1.5454 l 1.1275,-1.1436 c 0.6201,-0.6291 1.3643,-1.2772 1.6537,-1.4403 l 0.5261,-0.2966 -0.288,-0.2913 -0.2881,-0.2913 0.2781,-0.8885 0.2781,-0.8885 1.0384,-0.1393 c 0.5711,-0.077 1.3197,-0.032 1.6636,0.099 l 0.6252,0.2377 v 0.5259 c 0,0.2893 0.2495,1.1554 0.5545,1.9248 l 0.5545,1.3988 0.1473,3.1392 0.1473,3.1393 0.9369,0.3914 c 0.5153,0.2153 1.3115,0.4523 1.7693,0.5266 l 0.8323,0.135 0.5717,-0.9689 0.5716,-0.9688 v -2.4806 -2.4806 l 0.5558,-0.1764 c 0.3057,-0.097 0.6561,-0.075 0.7786,0.048 0.2628,0.265 0.3957,2.5812 0.3125,5.4465 l -0.059,2.0467 -1.0892,0.7208 -1.0891,0.7208 -1.6228,0.084 -1.6228,0.084 z m -2.8542,-3.9481 0.3329,-0.6614 -0.023,-1.5875 c -0.012,-0.8732 -0.1048,-1.8852 -0.2054,-2.249 l -0.1829,-0.6615 -0.5604,-0.081 -0.5604,-0.081 -0.884,0.8982 c -0.4861,0.4941 -1.0942,1.2667 -1.3513,1.717 l -0.4673,0.8188 0.4489,0.9414 c 0.2469,0.5177 0.6656,1.0101 0.9304,1.0942 0.2648,0.084 0.4814,0.2713 0.4814,0.4163 v 0.2635 l 0.8539,-0.083 0.8538,-0.083 z m 34.4961,3.6295 c -0.1164,-0.3146 -0.1283,-0.8729 -0.026,-1.2408 l 0.1852,-0.6689 0.5038,0.077 c 0.2771,0.042 0.6824,0.102 0.9007,0.1323 l 0.3969,0.055 -0.068,-0.9261 c -0.037,-0.5093 -0.3739,-1.8785 -0.7476,-3.0427 -1.0921,-3.4026 -1.1685,-3.7002 -1.1685,-4.5504 0,-0.4448 -0.1786,-0.9569 -0.3969,-1.1381 l -0.3968,-0.3294 v -0.8802 -0.8801 l 0.909,-0.6934 0.909,-0.6933 0.5462,0.2923 0.5462,0.2923 v 0.9658 0.9659 l -0.5349,0.5693 -0.5349,0.5694 0.5349,0.68 c 0.2942,0.3741 0.5349,0.8458 0.5349,1.0484 0,0.2026 0.118,0.4864 0.2622,0.6307 0.1443,0.1442 0.3893,0.8526 0.5445,1.5742 0.1552,0.7216 0.401,1.8478 0.5462,2.5027 0.1452,0.6548 0.331,1.5867 0.4129,2.0708 0.1668,0.9861 0.6891,1.3275 1.2803,0.8368 l 0.3935,-0.3266 v -4.5654 -4.5654 l 0.3934,-0.3265 0.3934,-0.3266 0.6333,0.159 0.6333,0.1589 0.145,0.5545 c 0.08,0.305 0.075,2.5387 -0.011,4.9639 l -0.156,4.4093 -0.4392,0.7867 -0.4392,0.7868 -0.9072,0.2469 c -0.499,0.1358 -1.9555,0.2805 -3.2367,0.3217 l -2.3296,0.075 z m 9.3648,0.01 c -0.08,-0.3274 -0.1123,-3.0956 -0.071,-6.1515 l 0.075,-5.5563 0.6258,-0.089 c 0.3443,-0.049 0.7438,0.029 0.888,0.1735 l 0.2621,0.2621 -0.04,5.5903 c -0.044,6.1919 -0.071,6.3657 -0.9656,6.3657 h -0.6281 z m 6.6372,0.1796 c -0.2287,-0.2287 -0.4158,-0.5457 -0.4158,-0.7044 0,-0.7469 0.9569,-3.3359 1.5173,-4.1054 l 0.6263,-0.8599 h 1.3756 c 1.4797,0 2.4753,0.3833 2.9335,1.1169 l 0.2869,0.4594 -0.5255,0.5254 -0.5255,0.5254 -0.5953,-0.1557 c -0.3275,-0.086 -0.5954,-0.2609 -0.5954,-0.3895 0,-0.1285 -0.331,-0.2337 -0.7357,-0.2337 h -0.7357 l -0.3143,0.8325 c -0.1728,0.4579 -0.2445,0.9454 -0.1593,1.0832 l 0.1549,0.2507 0.9612,-0.1434 c 0.5287,-0.079 1.2589,-0.1793 1.6227,-0.2233 l 0.6614,-0.08 0.086,0.751 0.086,0.751 -0.4577,0.5058 -0.4577,0.5057 h -2.1891 -2.189 z m 9.358,-0.1105 c -0.518,-0.2689 -1.0655,-0.6474 -1.2167,-0.8412 -0.4048,-0.5188 -0.9449,-6.0912 -0.8415,-8.6811 l 0.09,-2.2433 0.7196,-0.2524 0.7196,-0.2523 0.5714,0.5113 0.5713,0.5113 -0.1781,4.2845 -0.178,4.2844 0.3398,0.5442 0.3398,0.5442 h 1.6562 1.6561 v -2.1167 -2.1167 h 0.2646 c 0.1455,0 0.2646,-0.2196 0.2646,-0.4881 0,-0.2685 0.2084,-0.6669 0.463,-0.8853 0.7285,-0.6248 2.865,-1.5606 3.2706,-1.4326 0.2021,0.064 0.6729,0.1823 1.0463,0.2632 0.8875,0.1924 1.6302,0.8685 2.2121,2.0137 l 0.4706,0.926 -0.035,1.417 -0.035,1.417 -0.4287,0.832 c -0.8908,1.729 -1.9444,2.0507 -7.0967,2.1665 l -3.7042,0.083 z m 9.4351,-1.7929 c 0.8852,-0.5911 1.2218,-3.1872 0.5311,-4.097 l -0.3514,-0.463 h -1.2126 -1.2126 l -0.4119,0.588 -0.4119,0.5881 v 1.3813 1.3813 l 0.588,0.4119 c 0.6131,0.4294 1.9791,0.5447 2.4813,0.2094 z m 19.1968,1.9718 -0.2882,-0.3473 -0.061,-5.3293 -0.061,-5.3292 0.4898,-0.5411 c 0.2693,-0.2977 0.7123,-0.5412 0.9844,-0.5412 h 0.4947 l 0.1919,0.5953 c 0.1055,0.3275 0.1553,2.9904 0.1106,5.9176 l -0.081,5.3222 -0.6588,0.3002 c -0.8142,0.3709 -0.7735,0.3727 -1.122,-0.047 z m -3.0735,-16.1488 -0.4877,-0.3567 0.1746,-1.0917 0.1746,-1.0916 -8.8824,-0.073 c -9.2333,-0.076 -9.6632,-0.038 -10.4915,0.9167 l -0.5028,0.5797 -1.5069,0.01 -1.507,0.01 -0.9809,-0.4701 c -0.5395,-0.2586 -1.0526,-0.586 -1.1401,-0.7276 l -0.1591,-0.2576 -4.2839,-0.017 -4.2839,-0.017 -1.4552,-0.3148 c -0.8003,-0.1731 -1.5938,-0.4043 -1.7633,-0.5138 l -0.3081,-0.1991 -0.089,0.2513 c -0.1702,0.482 -3.5634,0.8064 -8.4569,0.8083 h -4.9285 l -0.2859,0.3445 c -0.1573,0.1895 -0.2198,0.5972 -0.1391,0.906 l 0.1469,0.5615 -0.8063,0.417 -0.8062,0.4169 h -1.3037 -1.3036 l -0.3173,-0.3823 c -0.1745,-0.2103 -0.2784,-0.6568 -0.2308,-0.9922 l 0.086,-0.6099 0.6348,-0.09 c 0.3492,-0.049 0.9145,0.06 1.2564,0.2429 0.6872,0.3678 1.0308,0.2065 0.8063,-0.3785 l -0.146,-0.3805 -13.7998,-0.039 -13.7998,-0.039 -1.3209,-0.2505 c -1.5586,-0.2956 -1.8091,-0.4248 -1.8091,-0.9335 0,-0.2097 -0.03,-0.3806 -0.066,-0.3797 -0.036,8e-4 -0.7568,0.1146 -1.6009,0.2529 l -1.5349,0.2514 -0.6801,-0.2586 c -0.7663,-0.2914 -2.2255,-1.672 -2.6897,-2.545 -0.433,-0.8141 -0.382,-3.2798 0.091,-4.4123 l 0.3985,-0.9538 1.0707,-0.5462 1.0707,-0.5463 1.4323,-0.058 1.4323,-0.058 0.3374,-0.3374 0.3374,-0.3374 -0.3947,-0.2607 -0.3946,-0.2608 -0.7938,0.1737 c -0.4365,0.095 -1.0914,0.188 -1.4552,0.2056 l -0.6615,0.032 -0.087,-0.6126 -0.087,-0.6125 0.5904,-0.5119 0.5903,-0.512 h 1.3823 1.3823 l 0.3494,0.421 0.3495,0.4211 -0.061,0.9035 c -0.033,0.497 0.088,1.1707 0.2692,1.4972 l 0.3301,0.5937 0.1413,3.4395 0.1414,3.4396 0.5953,0.085 c 0.3275,0.046 0.5953,0.1953 0.5953,0.3307 v 0.2462 h 13.6631 13.663 l 0.3515,-0.463 0.3514,-0.4631 0.01,-2.9765 0.01,-2.9766 h 0.7844 0.7845 l 0.3103,0.5799 0.3103,0.5799 -0.1679,2.5633 -0.168,2.5634 0.3368,0.2795 0.3368,0.2796 6.3784,0.024 6.3783,0.024 0.1397,-0.364 c 0.1664,-0.4337 -0.6939,-1.4797 -1.7975,-2.1851 -0.4365,-0.279 -1.002,-0.6826 -1.2567,-0.8969 l -0.4632,-0.3895 v -0.7157 -0.7158 l 0.6972,-0.5483 c 0.3834,-0.3017 0.9121,-0.5484 1.175,-0.5484 0.2628,0 0.5514,-0.1191 0.6414,-0.2646 l 0.1635,-0.2646 h 2.2439 2.2439 l 1.0138,0.5172 1.0138,0.5172 0.1465,0.5604 c 0.3786,1.4477 -0.6121,3.4107 -1.9329,3.8299 -0.6332,0.201 -0.8467,0.8147 -0.4096,1.1774 l 0.3504,0.2908 4.1979,-0.073 4.1979,-0.073 0.076,-0.9261 c 0.093,-1.1406 0.522,-2.2833 1.2162,-3.2411 l 0.5274,-0.7276 h 2.0763 2.0762 l 0.6647,0.4356 c 0.8164,0.5349 1.4333,1.9423 1.4333,3.27 v 0.9952 l 0.5953,0.1595 c 0.3275,0.088 5.2723,0.1612 10.9885,0.1632 h 10.3932 l 0.1599,-0.4166 c 0.2269,-0.5912 -0.4174,-2.3811 -1.0757,-2.9885 -0.6243,-0.576 -2.2617,-1.0891 -3.4826,-1.0914 h -0.81 l -0.513,0.4728 c -0.2821,0.26 -0.9108,0.6362 -1.3972,0.836 l -0.8843,0.3631 -0.2361,-0.3729 c -0.5534,-0.8742 -0.086,-1.7501 1.4607,-2.7346 l 0.7788,-0.4959 h 2.1559 2.1558 l 0.9018,0.502 c 1.2258,0.6824 2.8861,2.4217 2.8861,3.0235 0,0.2703 0.1191,0.565 0.2646,0.6549 0.3066,0.1895 0.3534,3.2872 0.057,3.7538 -0.1099,0.1728 -0.5378,0.4427 -0.9509,0.5997 l -0.7512,0.2856 -0.9632,-0.2675 c -1.8499,-0.5138 -3.674,-0.1742 -2.5233,0.4698 l 0.4355,0.2438 v 0.744 0.7441 l -0.4805,0.3514 c -0.5973,0.4368 -0.6911,0.4364 -1.2951,-0.01 z m -20.0797,-4.0702 c 0.087,-0.3475 0.099,-1.1592 0.027,-1.8038 l -0.1321,-1.1721 -0.6281,-0.5232 c -0.8792,-0.7323 -1.4007,-0.6674 -2.1921,0.2732 l -0.685,0.8141 0.01,1.1042 c 0.01,1.2842 0.3468,1.7925 1.4468,2.1819 l 0.7937,0.281 0.6017,-0.2617 c 0.3309,-0.1439 0.673,-0.5461 0.7602,-0.8936 z m -65.4696,-1.9894 c 0.7145,-0.5634 1.0266,-3.2586 0.5209,-4.4979 l -0.2969,-0.7276 h -0.6812 c -1.7299,0 -2.7715,1.1845 -2.7715,3.1517 v 1.0007 l 0.463,0.5282 c 0.7789,0.8886 2.0198,1.1331 2.7657,0.5449 z m 50.435,-1.5222 0.6148,-0.5123 -0.086,-0.6033 -0.086,-0.6033 -1.7116,-0.08 c -0.9414,-0.044 -1.9815,-0.013 -2.3113,0.07 l -0.5997,0.1505 1.1192,1.0543 1.1193,1.0542 0.6629,-0.01 c 0.3645,0 0.9395,-0.2393 1.2776,-0.5212 z m 5.423,-14.919 c -1.0449,-0.1615 -1.9875,-0.383 -2.0946,-0.4921 -0.1072,-0.1092 -0.4687,-0.1985 -0.8033,-0.1985 h -0.6085 l -1.9704,-1.9182 c -1.9469,-1.8952 -3.8682,-4.5502 -3.8682,-5.3451 0,-0.2253 -0.101,-0.4096 -0.2244,-0.4096 -0.1956,0 -0.6401,-0.9033 -1.3671,-2.7781 -0.1129,-0.291 -0.3665,-1.2435 -0.5637,-2.1167 l -0.3584,-1.5875 v -4.2333 -4.2333 l 0.5632,-1.1907 c 0.3097,-0.6548 0.6302,-1.3946 0.7121,-1.6439 0.082,-0.2493 0.6837,-1.2651 1.3375,-2.2575 l 1.1886,-1.8042 1.6677,-1.3448 c 1.9032,-1.5348 3.5359,-2.3205 5.7885,-2.7858 l 1.569,-0.3241 2.7113,0.63 c 1.4913,0.3465 3.16,0.6807 3.7083,0.7428 l 0.997,0.1128 0.3921,0.5598 c 0.4787,0.6834 0.4931,1.1774 0.061,2.107 l -0.3308,0.7122 h -1.0291 -1.0292 l -0.3515,-0.463 c -0.1933,-0.2547 -0.3552,-0.7268 -0.3599,-1.0491 l -0.01,-0.586 -0.5754,-0.3079 -0.5754,-0.308 -2.2689,0.1313 -2.2688,0.1312 -1.0584,0.59 c -2.1095,1.1759 -4.8948,4.6321 -4.8948,6.0739 0,0.4309 -0.119,0.857 -0.2645,0.947 l -0.2646,0.1635 v 2.2369 c 0,1.2303 0.1047,2.4437 0.2326,2.6964 0.128,0.2527 0.442,1.1142 0.6979,1.9146 1.5446,4.8309 5.8189,8.9958 9.2321,8.9958 h 0.9138 l 0.4954,-0.7276 c 0.2724,-0.4001 0.7153,-1.2336 0.9842,-1.852 0.2689,-0.6185 0.5899,-1.1245 0.7133,-1.1245 0.1234,0 0.2244,-0.1687 0.2244,-0.3748 0,-0.2062 0.089,-0.4146 0.1985,-0.4631 0.1091,-0.049 0.6291,-0.743 1.1554,-1.5434 1.9447,-2.957 9.2024,-10.3187 10.173,-10.3187 0.1579,0 0.5668,-0.2977 0.9085,-0.6615 0.3418,-0.3638 0.773,-0.6614 0.9582,-0.6614 0.1852,0 0.8966,-0.2977 1.5808,-0.6615 0.6842,-0.3638 1.4406,-0.6615 1.6809,-0.6615 0.2402,0 0.5499,-0.1082 0.6882,-0.2405 0.1382,-0.1323 0.898,-0.43 1.6884,-0.6615 l 1.4371,-0.4209 h 3.1497 3.1497 l 1.7632,0.4325 c 0.9698,0.2378 2.0013,0.5236 2.2924,0.635 0.291,0.1114 1.2435,0.4085 2.1166,0.6602 2.2322,0.6435 5.3738,2.1821 5.7,2.7916 l 0.2745,0.5128 -0.6894,0.2621 c -0.3791,0.1441 -1.3577,0.2621 -2.1746,0.2621 -1.662,0 -3.932,0.6388 -5.6865,1.6003 -0.2527,0.1385 -0.6161,0.2518 -0.8074,0.2518 -0.1914,0 -1.4633,1.0407 -2.8265,2.3127 l -2.4785,2.3128 -3.461,0.028 c -1.9035,0.015 -3.9967,0.1528 -4.6516,0.3053 -0.6548,0.1525 -1.905,0.4186 -2.7781,0.5912 -2.0987,0.4149 -6.0625,2.3735 -7.4972,3.7045 -0.6309,0.5853 -1.256,1.0642 -1.389,1.0642 -0.1331,0 -0.2419,0.1901 -0.2419,0.4224 v 0.4224 l 1.389,-0.1417 c 0.764,-0.078 4.2466,-0.2797 7.7391,-0.4484 l 6.35,-0.3066 7.9062,0.149 c 4.3485,0.082 7.965,0.2078 8.0368,0.2796 0.072,0.072 0.1304,0.4284 0.1304,0.7926 v 0.6622 l -1.5987,2.2351 c -2.3723,3.3165 -3.7551,4.9683 -5.0652,6.0505 l -1.1738,0.9697 -1.3398,0.1343 c -0.7368,0.074 -8.1858,0.1821 -16.5532,0.2404 l -15.2136,0.106 z m 49.3112,-0.3696 -0.4479,-0.4949 v -33.7839 -33.7838 l 0.3307,-1.1203 0.3307,-1.1203 1.1907,-1.1907 c 0.6548,-0.6548 1.7473,-1.4727 2.4277,-1.8174 0.6804,-0.3447 1.9305,-1.3404 2.7781,-2.2125 2.1678,-2.2308 2.3763,-2.4647 2.8767,-3.2284 0.2448,-0.3736 0.6672,-0.6792 0.9387,-0.6792 h 0.4937 l 0.1647,0.6561 c 0.091,0.3608 0.089,1.8193 0,3.2411 -0.093,1.4218 -0.223,16.5452 -0.2894,33.6075 l -0.1208,31.0224 10.3825,-0.042 c 5.7103,-0.023 9.9657,-0.091 9.4563,-0.1512 -0.5093,-0.06 -1.0391,-0.2194 -1.1774,-0.3545 -0.1382,-0.1352 -0.4449,-0.2457 -0.6814,-0.2457 -0.2366,0 -0.7098,-0.2977 -1.0516,-0.6615 -0.3418,-0.3638 -0.763,-0.6615 -0.9362,-0.6615 -0.4132,0 -1.7369,-1.9241 -2.161,-3.1413 -0.3806,-1.0922 -0.4557,-4.3081 -0.1167,-4.9982 0.1241,-0.2527 0.4515,-0.9276 0.7276,-1.4997 0.6395,-1.3254 8.9542,-9.661 9.6485,-9.6728 0.4644,-0.01 4.9756,-5.5997 5.147,-6.3799 0.092,-0.4182 0.2769,-0.8282 0.4112,-0.9113 0.1343,-0.083 0.2442,-0.4177 0.2442,-0.7438 0,-0.3261 0.1411,-0.734 0.3135,-0.9065 l 0.3136,-0.3135 0.017,-3.5097 c 0.01,-1.9303 -0.075,-4.1288 -0.1886,-4.8855 l -0.2058,-1.3758 0.5547,-0.2969 0.5547,-0.2969 2.71,2.731 2.71,2.7311 1.5052,2.3012 c 0.8278,1.2657 1.5051,2.4042 1.5051,2.5301 0,0.126 0.2976,0.846 0.6614,1.6001 0.3639,0.7542 0.6615,1.5433 0.6615,1.7537 0,0.2104 0.1059,0.448 0.2354,0.528 0.1294,0.08 0.3009,0.5335 0.381,1.0078 0.08,0.4743 0.2833,1.5768 0.4516,2.4499 l 0.3059,1.5875 -0.1389,3.5719 c -0.076,1.9645 -0.2525,3.929 -0.3914,4.3656 -0.139,0.4366 -0.4044,1.3295 -0.5897,1.9844 -0.5206,1.8392 -2.7142,6.1022 -4.3169,8.3894 l -1.4464,2.0642 -6.2518,6.3487 -6.2518,6.3487 -16.6071,0.077 -16.607,0.077 z m 42.343,-21.9506 -0.1028,-3.1089 -0.4512,-1.7198 c -0.2481,-0.9459 -0.5185,-2.0174 -0.6008,-2.3812 -0.2148,-0.9489 -0.7257,-2.1167 -0.9262,-2.1167 -0.094,0 -0.246,-0.2977 -0.3373,-0.6615 -0.091,-0.3638 -0.3126,-0.6606 -0.4917,-0.6596 -0.1791,10e-4 -1.9628,1.6441 -3.9637,3.6514 l -3.638,3.6496 v 1.1057 c 0,2.0108 1.1635,3.9683 2.7844,4.6846 0.645,0.285 3.3223,0.5682 5.8962,0.6236 l 1.9338,0.042 z m 54.0659,22.2185 -4.6108,-0.073 -0.3501,-0.2905 -0.3501,-0.2905 v -34.2443 -34.2443 l 0.3717,-0.7145 c 0.4287,-0.8242 1.255,-1.5806 2.8598,-2.6178 2.2514,-1.4552 4.6607,-3.5174 5.2585,-4.5011 0.3356,-0.5521 0.6847,-1.0634 0.7758,-1.1362 0.091,-0.073 0.2456,-0.349 0.3435,-0.6138 l 0.1779,-0.4816 0.5965,0.085 0.5965,0.085 0.058,38.8937 c 0.032,21.3916 0,39.1475 -0.063,39.4575 -0.1609,0.7503 -0.3281,0.7706 -5.6636,0.6866 z m -116.455,-37.9814 c -0.2287,-0.1708 -0.8576,-1.2319 -1.3975,-2.3581 l -0.9817,-2.0474 -1.5129,-1.5407 -1.5128,-1.5406 -2.0474,-0.976 -2.0473,-0.9759 h -1.8679 -1.8679 l -0.6488,-0.7001 c -0.3569,-0.385 -0.6489,-0.8446 -0.6489,-1.0212 0,-0.378 -3.0677,-3.5727 -3.8364,-3.9951 -0.2911,-0.1599 -0.5676,-0.549 -0.6145,-0.8646 l -0.085,-0.5738 0.9366,-0.3913 0.9367,-0.3914 h 2.9851 2.985 l 1.1907,0.4009 c 1.6879,0.5683 3.358,1.4395 4.1287,2.1538 0.3635,0.3369 0.7442,0.6137 0.8458,0.615 0.1017,0 0.4427,0.3287 0.7579,0.7276 0.3153,0.3989 0.8815,1.0824 1.2584,1.519 0.3769,0.4365 0.7521,1.0021 0.8338,1.2567 0.082,0.2547 0.2596,0.463 0.3953,0.463 0.1357,0 0.2467,0.2344 0.2467,0.5209 v 0.5209 l 0.3763,-0.1444 c 0.207,-0.08 0.5638,-0.6128 0.7928,-1.1853 0.3945,-0.9859 3.4769,-5.0037 3.8388,-5.0037 0.093,0 0.3666,-0.3274 0.6072,-0.7276 0.2406,-0.4002 1.3974,-1.7152 2.5706,-2.9221 l 2.1331,-2.1945 v -0.6342 c 0,-0.3488 0.119,-0.7077 0.2646,-0.7977 0.1455,-0.09 0.2645,-0.9179 0.2645,-1.8399 v -1.6764 l -0.6091,-0.5863 c -0.3351,-0.3225 -1.0381,-0.7338 -1.5624,-0.914 l -0.9533,-0.3277 -0.7988,0.3359 c -1.1816,0.4968 -2.4117,2.6751 -2.4224,4.2894 v 0.6038 l -0.5953,0.2298 -0.5953,0.2298 -0.296,-0.3045 c -0.7985,-0.8214 -1.1224,-3.25 -0.6379,-4.7836 0.1412,-0.4469 0.3201,-1.2292 0.3976,-1.7386 l 0.1408,-0.926 0.9584,-1.1245 0.9583,-1.1245 h 1.8191 1.8191 v 0.2646 c 0,0.1455 0.1725,0.2646 0.3832,0.2646 0.6693,0 1.7384,1.2255 2.6947,3.0891 l 0.9266,1.8057 0.2657,2.249 c 0.2969,2.5124 0.1079,5.4566 -0.4308,6.7117 -1.0934,2.5478 -1.3494,3.0377 -2.0918,4.0039 -0.4473,0.5821 -1.5296,1.8351 -2.4049,2.7845 -2.6968,2.9246 -4.1052,4.8045 -4.1052,5.4793 0,0.2716 -0.1294,0.6233 -0.2876,0.7814 -0.1581,0.1582 -0.3535,1.2503 -0.4341,2.427 l -0.1467,2.1393 -0.4257,0.384 -0.4257,0.3839 z m 50.7529,-4.9837 c -0.4002,-0.1462 -0.7276,-0.3695 -0.7276,-0.4963 0,-0.2767 -0.7764,-1.0488 -2.6076,-2.5932 -0.7486,-0.6315 -1.3612,-1.3161 -1.3612,-1.5214 0,-0.2053 -0.091,-0.3733 -0.2025,-0.3733 -0.3681,0 -1.1204,-2.5627 -1.1204,-3.8168 v -1.2323 l 0.787,-1.6426 c 0.4328,-0.9035 1.2662,-2.1741 1.8521,-2.8237 0.5858,-0.6496 1.0651,-1.2746 1.0651,-1.389 0,-0.1145 0.3902,-0.2081 0.8672,-0.2081 h 0.8673 l 2.5755,2.4474 2.5755,2.4474 v 0.463 c 0,0.2547 0.1029,0.4631 0.2325,0.4631 0.1296,0 0.2997,0.3869 0.378,0.8599 0.078,0.4729 0.2261,1.1972 0.3286,1.6095 l 0.1862,0.7497 -0.3538,1.1024 c -0.1946,0.6063 -0.5661,1.4596 -0.8255,1.8962 -0.2595,0.4365 -0.5781,1.032 -0.7081,1.3233 -0.2082,0.4665 -2.7989,3.0756 -3,3.0214 -0.043,-0.011 -0.4049,-0.1405 -0.8051,-0.2866 z m -11.9496,-18.1882 -0.4561,-0.5039 0.5506,-1.0793 0.5506,-1.0793 0.6576,-0.1651 c 1.7255,-0.433 2.4711,1.3643 1.153,2.7792 l -0.5148,0.5524 h -0.7424 -0.7424 z m -2.1617,-2.2684 -0.1732,-0.6901 0.4513,-1.1816 c 0.5183,-1.3572 1.8046,-2.7642 2.527,-2.7642 0.2712,0 0.5668,-0.1191 0.6567,-0.2646 0.09,-0.1455 0.4471,-0.2646 0.7937,-0.2646 0.3467,0 0.6954,-0.1053 0.7749,-0.234 0.08,-0.1288 0.6974,-0.317 1.373,-0.4183 0.6756,-0.1013 1.5403,-0.3085 1.9215,-0.4603 0.3812,-0.1519 0.9313,-0.3714 1.2223,-0.4879 0.2911,-0.1164 0.8268,-0.2652 1.1906,-0.3306 1.0146,-0.1825 3.2449,-0.7607 3.8365,-0.9947 0.291,-0.1151 0.8268,-0.268 1.1906,-0.3397 0.3638,-0.072 1.3163,-0.327 2.1167,-0.5674 1.7032,-0.5116 2.6925,-0.801 3.9687,-1.1609 0.5094,-0.1436 1.5809,-0.4578 2.3813,-0.6982 0.8004,-0.2404 1.7529,-0.4958 2.1167,-0.5675 0.3638,-0.072 0.8995,-0.2237 1.1906,-0.3379 0.291,-0.1142 1.2435,-0.4169 2.1166,-0.6728 0.8732,-0.2558 1.8852,-0.5561 2.249,-0.6673 0.3638,-0.1111 1.3758,-0.4101 2.249,-0.6644 0.8731,-0.2543 1.861,-0.5661 2.1952,-0.6927 0.3343,-0.1267 0.876,-0.2304 1.2039,-0.2304 0.3278,0 0.7092,-0.097 0.8474,-0.2163 0.1383,-0.1189 0.9062,-0.3717 1.7066,-0.5617 0.8004,-0.19 2.1086,-0.6397 2.9071,-0.9995 l 1.4519,-0.654 0.4002,0.2608 0.4002,0.2608 -0.059,0.754 c -0.032,0.4147 -0.181,0.7948 -0.3307,0.8447 -0.1497,0.05 -0.2722,0.2318 -0.2722,0.4041 0,0.1724 -0.3019,0.7578 -0.671,1.3009 l -0.671,0.9875 h -1.0332 c -0.5682,0 -1.1067,0.119 -1.1967,0.2646 -0.09,0.1455 -0.7518,0.2645 -1.4708,0.2645 -0.719,0 -1.3073,0.091 -1.3073,0.202 0,0.3201 -2.8609,0.9941 -6.4823,1.5272 -0.5821,0.086 -1.2964,0.2653 -1.5875,0.3992 -0.8065,0.371 -4.0284,1.1236 -6.714,1.5683 -0.7823,0.1295 -1.7348,0.349 -2.1167,0.4877 -0.6409,0.2328 -1.194,0.3875 -3.9354,1.1009 -2.7034,0.7035 -4.4087,1.0654 -5.0485,1.0713 -0.3884,0 -1.4206,0.2482 -2.2937,0.5437 -0.8731,0.2954 -2.1565,0.6072 -2.852,0.6927 -0.6955,0.085 -1.3276,0.2576 -1.4047,0.3823 -0.077,0.1248 -0.4833,0.2268 -0.9027,0.2268 -0.4194,0 -0.8361,0.1191 -0.926,0.2646 -0.09,0.1455 -0.3649,0.2686 -0.611,0.2734 -0.246,0 -0.7406,0.2528 -1.0991,0.5511 l -0.6517,0.5423 -0.142,1.2349 -0.1421,1.2348 -0.5859,0.083 -0.586,0.083 z"
       id="path228" /></g></svg>
