<?xml version="1.0" encoding="UTF-8" standalone="no"?>
<!-- Created with Inkscape (http://www.inkscape.org/) -->

<svg
   width="227.18077mm"
   height="227.46947mm"
   viewBox="0 0 227.18077 227.46947"
   version="1.1"
   id="svg1"
   xml:space="preserve"
   inkscape:version="1.3 (0e150ed6c4, 2023-07-21)"
   sodipodi:docname="ربوع.svg"
   xmlns:inkscape="http://www.inkscape.org/namespaces/inkscape"
   xmlns:sodipodi="http://sodipodi.sourceforge.net/DTD/sodipodi-0.dtd"
   xmlns="http://www.w3.org/2000/svg"
   xmlns:svg="http://www.w3.org/2000/svg"><sodipodi:namedview
     id="namedview1"
     pagecolor="#ffffff"
     bordercolor="#000000"
     borderopacity="0.25"
     inkscape:showpageshadow="2"
     inkscape:pageopacity="0.0"
     inkscape:pagecheckerboard="0"
     inkscape:deskcolor="#d1d1d1"
     inkscape:document-units="mm"
     inkscape:zoom="1.0469406"
     inkscape:cx="4409.5146"
     inkscape:cy="4313.043"
     inkscape:window-width="1920"
     inkscape:window-height="1009"
     inkscape:window-x="-8"
     inkscape:window-y="-8"
     inkscape:window-maximized="1"
     inkscape:current-layer="layer1"
     showgrid="false"
     showguides="true" /><defs
     id="defs1" /><g
     inkscape:label="Layer 1"
     inkscape:groupmode="layer"
     id="layer1"
     transform="translate(-718.40694,-1392.7799)"><path
       style="fill:#4f5a3e;fill-opacity:1;stroke-width:0.999999"
       d="m 718.65276,1616.9369 c 0.40181,-1.8284 3.71936,-14.6527 7.37269,-28.4984 l 6.64243,-25.1738 -4.32051,-9.2233 c -2.37629,-5.0724 -5.52324,-13.6288 -6.99322,-19.0134 l -2.6727,-9.7901 v -19.0052 -19.0047 l 2.63169,-9.7906 c 1.44743,-5.3846 5.1964,-14.9958 8.33107,-21.3585 l 5.69942,-11.568 7.80145,-9.7331 7.8014,-9.7331 9.78315,-7.876 9.7832,-7.8764 11.51807,-5.6145 c 6.33495,-3.0877 15.92373,-6.8033 21.30845,-8.256 l 9.79038,-2.642 h 19.00481 19.00487 l 9.79037,2.6316 c 5.38468,1.4475 14.99609,5.1965 21.3586,8.3309 l 11.56827,5.6997 9.733,7.8011 9.73296,7.8016 7.87615,9.7831 7.8761,9.7832 5.61449,11.5184 c 3.08792,6.3349 6.80332,15.9234 8.25641,21.308 l 2.64192,9.7906 v 19.0047 19.0052 l -2.63169,9.7901 c -1.44743,5.3846 -5.19644,14.9962 -8.33111,21.3585 l -5.69938,11.5685 -7.80144,9.7331 -7.80145,9.7326 -9.78315,7.8764 -9.78316,7.876 -11.51807,5.6144 c -6.33495,3.0878 -15.92377,6.8034 -21.30845,8.2565 l -9.79037,2.642 h -19.00487 -19.00481 l -9.79038,-2.6729 c -5.38472,-1.4697 -13.95431,-4.6232 -19.04352,-7.0071 l -9.25314,-4.3345 -27.60475,7.2826 c -15.18258,4.005 -28.03463,7.2883 -28.56007,7.2952 -0.52544,0 -0.62675,-1.4836 -0.22507,-3.3124 z m 136.51797,-19.228 c 17.59892,-4.5009 32.98733,-13.8278 46.48327,-28.1741 l 8.91267,-9.4741 5.60787,-11.6524 c 3.0843,-6.409 6.53455,-15.281 7.66719,-19.7152 l 2.05932,-8.0628 v -14.3976 -14.3976 l -2.09828,-8.0623 c -4.76329,-18.303 -13.88609,-33.4377 -28.36618,-47.0596 l -9.4742,-8.9125 -11.65246,-5.6079 c -6.40883,-3.0843 -15.28066,-6.5347 -19.7151,-7.667 l -8.06264,-2.0595 h -14.39765 -14.39759 l -8.06265,2.0983 c -18.30272,4.7633 -33.43737,13.8861 -47.05921,28.366 l -8.91263,9.4745 -5.60787,11.6525 c -3.0843,6.4089 -6.53455,15.2805 -7.66719,19.7152 l -2.05937,8.0623 v 14.3976 14.3976 l 2.05937,8.0628 c 1.13264,4.4342 4.6659,13.476 7.85169,20.0926 l 5.79227,12.0303 -4.10398,15.5743 c -2.25718,8.566 -3.98274,15.6958 -3.83451,15.8443 0.14801,0.148 7.34405,-1.5946 15.99077,-3.8731 l 15.72131,-4.1431 9.00382,4.6568 c 10.74715,5.5582 17.75686,8.054 28.58459,10.1766 l 8.06264,1.5803 12.09397,-0.5041 c 6.6517,-0.2786 15.46307,-1.3661 19.58076,-2.4191 z m -7.48675,-40.1209 c -4.43448,-1.4722 -10.6152,-3.8021 -13.73498,-5.1769 -20.07786,-8.8494 -45.07016,-33.8364 -55.17223,-55.1606 l -3.65672,-7.7188 0.0174,-9.2146 0.0174,-9.2146 2.16163,-4.0311 c 5.37841,-10.0305 10.21726,-13.7203 18.0723,-13.7808 l 5.29256,-0.044 1.78398,2.0156 c 2.31987,2.6211 11.24294,24.5034 11.24294,27.5716 0,1.2994 -2.14221,5.0529 -4.7605,8.3413 l -4.76045,5.9793 1.16015,2.5218 c 4.9897,10.8476 18.66761,23.796 32.28701,30.5649 l 8.37682,4.1631 1.98946,-1.239 c 1.0942,-0.6812 4.06275,-3.8735 6.59672,-7.0941 2.53396,-3.2205 5.44505,-6.1642 6.46908,-6.5421 l 1.8619,-0.687 13.41201,6.3019 13.41201,6.3022 0.72465,1.8881 c 0.39876,1.0386 0.11624,4.6066 -0.62709,7.9286 l -1.35174,6.0402 -4.2805,4.1644 c -2.35431,2.2902 -6.61296,5.2178 -9.46367,6.5055 l -5.18316,2.3412 -6.91085,-0.043 -6.91085,-0.044 z"
       id="path231" /></g></svg>
