<?xml version="1.0" encoding="UTF-8" standalone="no"?>
<!-- Created with Inkscape (http://www.inkscape.org/) -->

<svg
   width="78.452576mm"
   height="71.966667mm"
   viewBox="0 0 78.452576 71.966667"
   version="1.1"
   id="svg1"
   xml:space="preserve"
   inkscape:version="1.3 (0e150ed6c4, 2023-07-21)"
   sodipodi:docname="ربوع.svg"
   xmlns:inkscape="http://www.inkscape.org/namespaces/inkscape"
   xmlns:sodipodi="http://sodipodi.sourceforge.net/DTD/sodipodi-0.dtd"
   xmlns="http://www.w3.org/2000/svg"
   xmlns:svg="http://www.w3.org/2000/svg"><sodipodi:namedview
     id="namedview1"
     pagecolor="#ffffff"
     bordercolor="#000000"
     borderopacity="0.25"
     inkscape:showpageshadow="2"
     inkscape:pageopacity="0.0"
     inkscape:pagecheckerboard="0"
     inkscape:deskcolor="#d1d1d1"
     inkscape:document-units="mm"
     inkscape:zoom="1.0469406"
     inkscape:cx="4409.5146"
     inkscape:cy="4313.043"
     inkscape:window-width="1920"
     inkscape:window-height="1009"
     inkscape:window-x="-8"
     inkscape:window-y="-8"
     inkscape:window-maximized="1"
     inkscape:current-layer="layer1"
     showgrid="false"
     showguides="true" /><defs
     id="defs1" /><g
     inkscape:label="Layer 1"
     inkscape:groupmode="layer"
     id="layer1"
     transform="translate(-1727.794,-1572.5544)"><path
       style="fill:#4f5a3e;fill-opacity:1"
       d="m 1729.3306,1644.3275 c -0.1088,-0.1766 3.8824,-4.8032 23.8595,-27.6579 2.1325,-2.4397 3.9054,-4.5233 3.9397,-4.6302 0.034,-0.107 -2.0188,-2.933 -4.5625,-6.2799 -7.7042,-10.1371 -13.5981,-17.8844 -19.4243,-25.5323 -3.0486,-4.0019 -5.454,-7.3666 -5.3454,-7.4772 0.1086,-0.1106 5.7226,-0.1701 12.4755,-0.1323 l 12.2782,0.069 8.286,10.9802 c 4.5573,6.0392 8.3789,11.1339 8.4923,11.3217 l 0.2062,0.3415 0.3804,-0.1668 c 0.2092,-0.092 2.7616,-2.9172 5.672,-6.2789 2.9104,-3.3617 7.2933,-8.4111 9.7398,-11.221 l 4.4481,-5.109 h 5.9368 c 3.2652,0 5.9363,0.089 5.9357,0.1985 -6e-4,0.1091 -1.5187,1.934 -3.3735,4.0552 -4.8736,5.5737 -13.033,14.9232 -18.2501,20.9123 l -4.5211,5.19 0.3067,0.5579 c 0.2571,0.4676 9.8668,13.2542 27.0687,36.0174 1.921,2.542 3.4352,4.7149 3.3649,4.8286 -0.07,0.1137 -5.525,0.2068 -12.1214,0.2068 h -11.9936 l -1.551,-2.0505 c -11.3583,-15.0166 -17.3948,-22.8176 -17.6469,-22.8051 -0.1692,0.01 -2.4843,2.5385 -5.1447,5.6224 -2.6603,3.084 -7.4847,8.6432 -10.7209,12.354 l -5.8838,6.7469 -5.8631,0.071 c -3.2246,0.039 -5.9193,-0.02 -5.9882,-0.1323 z m 62.5295,-7.4479 c 0,-0.1282 -2.2355,-3.1941 -4.9677,-6.8131 -2.7323,-3.619 -8.47,-11.2234 -12.7505,-16.8987 -10.3821,-13.7652 -15.8886,-21.0578 -21.1268,-27.9797 l -4.355,-5.7547 h -3.2552 -3.2553 l -0.1529,0.2475 c -0.084,0.1361 0.9204,1.6541 2.2322,3.3734 1.3118,1.7193 5.7508,7.5313 9.8644,12.9156 4.1136,5.3842 9.0202,11.8136 10.9036,14.2875 1.8833,2.4738 4.6512,6.1052 6.1509,8.0698 1.4996,1.9645 4.175,5.4768 5.9452,7.8052 1.7702,2.3283 4.3936,5.7514 5.8297,7.6067 l 2.6112,3.3735 h 3.1631 3.1631 z"
       id="path234" /></g></svg>
